<svg xmlns="http://www.w3.org/2000/svg" viewBox="0 0 340.2 340.2" style="enable-background:new 0 0 340.2 340.2" xml:space="preserve">
    <style>
        .st1{fill:#f5e6ca}
    </style>
    <path d="m322.5 120.7-2.3-2h-.1L191 7.5c-5.6-4.8-12.6-7.3-19.7-7h-1.6c-7.2-.2-14.2 2.3-19.8 7L18.7 120.6C11.9 126.5 8 135.1 8 144.3v36.3c-.1.8-.1 1.5-.1 2.2v119.7c0 .9 0 1.9.1 2.9v15.3c0 5.8 1.7 10.4 4.9 13.6 4.3 4.2 10 4.9 15.9 4.9 1.4 0 2.8 0 4.2-.1 1.5 0 3-.1 4.6-.1h265.7c1.6 0 3.1 0 4.5.1 7.3.2 14.9.4 20.3-4.8 3.3-3.2 4.9-7.7 4.9-13.5V144.3c.1-9.1-3.8-17.7-10.5-23.6z" style="fill:#444" id="Calque_2"/>
    <g id="Calque_1">
        <path class="st1" d="M317.1 126.7 185.8 13.6c-4.2-3.6-9.3-5.3-14.4-5.1h-1.9c-5.1-.2-10.2 1.5-14.4 5.1L23.9 126.7c-5 4.3-7.9 10.8-7.9 17.6v176.4c0 12.6 9.7 10.3 21.7 10.3h265.7c12 0 21.7 2.2 21.7-10.3V144.3c0-6.8-2.9-13.2-7.9-17.6h-.1z"/>
        <radialGradient id="SVGID_1_" cx="176.718" cy="89.04" r="180.6" gradientTransform="matrix(.9999 .0157 .011 -.6999 -4.55 211.672)" gradientUnits="userSpaceOnUse">
            <stop offset="0" style="stop-color:#f7bd6c"/>
            <stop offset=".5" style="stop-color:#db8355"/>
            <stop offset=".8" style="stop-color:#29445d"/>
            <stop offset="1" style="stop-color:#143651"/>
        </radialGradient>
        <path d="M309.7 134.2c8.4 6.8 8.4 51.2 0 57.9l-111.5 58.2-27.4-22.1-27.4 22.1-100.1-51.5-11.4-6.7c-8.4-6.8-9.6-50 0-57.9L155.8 27.5c8.8-7.1 21.3-7.1 30.1 0l123.8 106.7z" style="fill:url(#SVGID_1_)"/>
        <path d="m197.7 250.4 27 78h72.7c12.6 0 27.6-5.4 27.6-25.9V182.8c0-14.2-16.5-22.1-27.6-13.1l-99.7 80.7zm-54.5 0-27 78H43.5c-12.6 0-27.6-5.4-27.6-25.9V182.8c0-14.2 16.5-22.1 27.6-13.1l99.7 80.7z" style="fill:#fcedd0"/>
        <path d="M116.7 328.1H23.1c-10.9 0-1.8-7.6-.2-8.7L134 243.2l8.9 7.2-26.3 77.7h.1zm107.3 0h93.5c10.9 0 1.8-7.6.2-8.7l-111.1-76.2-8.9 7.2 26.3 77.7z" style="fill:#7c6d5d"/>
        <path class="st1" d="M317.4 322.1c-6.5-4.3-140.1-89.8-140.1-89.8-2.1-1.3-4.4-2-6.7-2s-4.7.7-6.7 2c0 0-133.6 85.5-140.1 89.8-5.3 3.5-4.8 6.1 0 6.1h294.1c4.7 0 5.2-2.7 0-6.1h-.5z"/>
        <circle cx="170.9" cy="154.4" r="47.8" style="fill:#fff"/>
    </g>
</svg>
