<svg id="Calque_1" data-name="Calque 1" xmlns="http://www.w3.org/2000/svg" version="1.1" viewBox="0 0 680.3 680.3">
    <defs>
        <radialGradient id="Dégradé_sans_nom_28" data-name="Dégradé sans nom 28" cx="345.9" cy="318.2" fx="345.9" fy="318.2" r="377.3" gradientTransform="rotate(.9 -9637.325 190.29) scale(1 .5)" gradientUnits="userSpaceOnUse">
            <stop offset="0" stop-color="#f7bd6c"/>
            <stop offset=".5" stop-color="#db8355"/>
            <stop offset=".8" stop-color="#29445d"/>
            <stop offset="1" stop-color="#143651"/>
        </radialGradient>
        <style>
            .cls-2,.cls-4,.cls-5,.cls-6{stroke:#fff}.cls-8{fill:#1a374a}.cls-6{stroke-miterlimit:10}.cls-2{fill:#fed894}.cls-2,.cls-4,.cls-5{stroke-width:2.3px;stroke-linecap:round;stroke-linejoin:round}.cls-10,.cls-11,.cls-12,.cls-15,.cls-16,.cls-18,.cls-8{stroke-width:0}.cls-10{fill:#fffcf9}.cls-11{fill:#fcedd0}.cls-12{fill:#233a7b}.cls-4{fill:#fff7ea}.cls-5{fill:#fdcc7c}.cls-16{opacity:.2}.cls-15{fill:#fff}.cls-16{fill:#0b5272}.cls-6{fill:#ffedd2;stroke-width:2.8px}.cls-18{fill:#e7d6be}
        </style>
    </defs>
    <path class="cls-11" d="M646.1 249.5 371.8 13.2c-8.7-7.5-19.4-11-30-10.7h-3.9c-10.6-.3-21.3 3.2-30 10.7L33.5 249.5C23 258.5 17 272 17 286.2v368.5c0 26.2 20.3 21.6 45.3 21.6h555.2c25 0 45.3 4.6 45.3-21.6V286.2c0-14.2-6.1-27.7-16.5-36.7Z"/>
    <path d="M630.8 265.1c17.5 14.1 17.6 106.9 0 121L397.9 507.7l-57.2-46.1-57.2 46.1L74.4 400.2l-23.8-14.1C33 372 30.5 281.6 50.6 265L309.2 42.1c18.3-14.8 44.6-14.8 63 0l258.6 223Z" style="stroke-width:0;fill:url(#Dégradé_sans_nom_28)"/>
    <circle class="cls-15" cx="342.8" cy="320.6" r="54.4"/>
    <g style="opacity:.7">
        <path class="cls-15" d="M274.5 333c-13.3 4.8-34.5 7.2-48.5 9.9-8 1.4-28.8 5-36.5 6.3l-12.4.7 11.9-3.5c7.7-1.3 28.6-5 36.5-6.3 14.1-2.2 34.8-7 49-7Zm136.5.4c14.1 0 34.9 5.1 48.9 7.3 8 1.4 28.8 5.2 36.5 6.6l11.9 3.6-12.4-.8c-7.7-1.4-28.6-5.1-36.5-6.6-14-2.8-35.1-5.3-48.4-10.2Zm-206.3-12.6c2.8-1.2 6.5-1.7 9.6-1.4h19.2c3.1-.2 6.7.3 9.6 1.5-2.9 1.2-6.5 1.7-9.6 1.4h-19.2c-3 .2-6.8-.2-9.6-1.5Zm161.7-65.2c2.4-13.9 10.9-33.5 15.4-47 2.8-7.7 9.9-27.5 12.6-34.9l5.6-11.1-2.8 12.1c-2.6 7.3-9.9 27.3-12.6 34.9-5.1 13.3-11.1 33.7-18.2 46Zm-23.8-4.1c-2.5-13.9-1.2-35.2-1.6-49.5v-37.1l1.4-12.4 1.5 12.4V202c-.3 14.3 1.1 35.5-1.3 49.5Zm0-129.3c-1.3-2.7-1.7-6-1.5-9v-18c-.3-3 .1-6.2 1.3-9 1.3 2.8 1.7 5.9 1.5 9v18c.3 2.9 0 6.3-1.3 9Zm-23.7 133.5c-7.1-12.2-13.2-32.7-18.4-45.9-2.8-7.6-10.1-27.4-12.8-34.8l-2.9-12.1 5.6 11.1c2.7 7.3 10 27.2 12.8 34.8 4.6 13.5 13.1 33 15.7 46.9Zm-20.8 12.1c-10.8-9.1-23.6-26.2-33-36.9-5.2-6.2-18.8-22.3-23.9-28.4l-6.9-10.4 9.1 8.5c5 6 18.7 22.2 23.9 28.4 9 11.1 23.6 26.5 30.8 38.7Zm-15.4 18.5c-13.3-4.8-31.1-16.5-43.6-23.4-7.1-4.1-25.3-14.5-32.2-18.5l-10-7.4 11.4 4.9c6.8 3.9 25.2 14.4 32.2 18.5 12.2 7.4 31.3 16.8 42.2 25.9Zm-8.2 22.6c-14.1 0-34.9-4.9-49-7-8-1.4-28.8-5-36.5-6.3l-11.9-3.5 12.4.7c7.7 1.3 28.6 5 36.6 6.3 14 2.7 35.1 5.1 48.5 9.9Zm136.5-.4c13.3-4.9 34.5-7.4 48.4-10.2 8-1.4 28.7-5.2 36.5-6.6l12.4-.8-11.9 3.6c-7.7 1.4-28.6 5.1-36.5 6.6-14.1 2.2-34.7 7.3-48.9 7.3Zm-8.3-22.6c10.8-9.1 29.9-18.7 42-26.1 7-4.1 25.2-14.7 32.1-18.7l11.4-5-10 7.5c-6.7 3.9-25.1 14.6-32.1 18.7-12.5 6.9-30.2 18.7-43.5 23.6Zm-15.5-18.4c3.6-8.1 13-17.5 18.5-24.5 5.9-6.6 13.4-17.6 20.7-22.6-3.6 8.1-13 17.5-18.5 24.5-5.9 6.6-13.4 17.6-20.7 22.6Zm-20.7-82.8c.8 3 .5 6.7-.2 9.7l-1.6 9.4-1.6 9.4c-.3 3.1-1.3 6.5-3.1 9.2-.7-3.1-.5-6.6.2-9.7l1.6-9.4 1.6-9.4c.3-3 1.4-6.6 3.1-9.2Zm2.7-16c-.5-.7-.8-1.3-1.1-2 .2-1.1.7-4 .9-5.1.2-1.1.7-4 .9-5.1.6-.5 1-1 1.7-1.5.5.7.7 1.3 1.1 2-.2 1.1-.7 4-.9 5.1-.2 1.1-.7 4-.9 5.1-.6.5-1 1-1.7 1.5Zm-50.7 16.1c1.7 2.6 2.8 6.1 3.1 9.2l1.7 9.4 1.7 9.4c.8 3.1 1 6.6.3 9.7-1.7-2.6-2.8-6.1-3.1-9.2l-1.7-9.4-1.7-9.4c-.8-3-1-6.7-.3-9.7Zm-4.4-24.4c-1.7-2.1-2.4-4.1-2.7-6.7l-1.2-7-1.2-7c-.7-2.6-.7-4.6.2-7.2 1.7 2.1 2.4 4 2.7 6.7l1.2 7 1.2 7c.6 2.5.7 4.7-.2 7.2Zm-40.7 40.9c2.5 1.8 4.7 4.8 6.1 7.6l4.8 8.3 4.8 8.3c1.8 2.6 3.2 5.9 3.6 9-2.5-1.9-4.7-4.7-6.1-7.6l-4.8-8.3-4.8-8.3c-1.7-2.5-3.2-5.9-3.6-9ZM261 179.9c-2.3-1.4-3.7-3-4.8-5.4l-3.6-6.1-3.6-6.1c-1.5-2.2-2.2-4.1-2.3-6.8 2.3 1.4 3.6 3 4.8 5.4l3.6 6.1 3.6 6.1c1.5 2.2 2.3 4.2 2.3 6.8Zm-24.2 52.4c3 .8 6.1 2.9 8.3 5l7.4 6.1 7.4 6.1c2.6 1.8 5 4.4 6.4 7.3-3-.9-6-2.8-8.3-5l-7.4-6.1-7.4-6.1c-2.5-1.8-5.1-4.5-6.4-7.3Zm-19.1-15.9c-2.6-.5-4.5-1.6-6.4-3.4l-5.4-4.5-5.4-4.5c-2.2-1.6-3.5-3.1-4.5-5.6 2.7.6 4.4 1.5 6.4 3.4l5.4 4.5 5.4 4.5c2.1 1.5 3.6 3.2 4.5 5.6Zm-4.8 57.5c3.1-.2 6.7.6 9.5 1.9l9 3.3 9 3.3c3 .9 6.2 2.5 8.5 4.6-3.2.2-6.6-.6-9.5-1.9l-9-3.3-9-3.3c-2.9-.8-6.3-2.5-8.5-4.6Zm-23.4-8.4c-2.6.4-4.8 0-7.1-1l-6.7-2.4-6.7-2.4c-2.6-.7-4.3-1.7-6.2-3.8 2.7-.4 4.7 0 7.1 1l6.7 2.4 6.7 2.4c2.5.7 4.4 1.7 6.2 3.8Z"/>
        <path class="cls-15" d="M204.7 321.2c2.8-1.3 6.5-1.7 9.6-1.5h19.2c3.1-.3 6.7.2 9.6 1.4-2.9 1.2-6.4 1.7-9.6 1.5h-19.2c-3 .3-6.8-.2-9.6-1.4Zm267.7-48.1c-2.2 2.2-5.5 3.8-8.5 4.7l-9 3.3-9 3.3c-2.9 1.3-6.3 2.1-9.5 1.9 2.3-2.2 5.5-3.8 8.5-4.7l9-3.3 9-3.3c2.8-1.3 6.4-2.1 9.5-1.9Zm23.3-8.5c1.7-2 3.6-3.1 6.1-3.8l6.6-2.4 6.6-2.4c2.5-1.1 4.4-1.5 7.1-1.1-1.8 2-3.5 3.1-6.1 3.8l-6.6 2.4-6.6 2.4c-2.4 1.1-4.5 1.5-7.1 1.1Zm-47.4-32.9c-1.3 2.8-3.9 5.5-6.4 7.3l-7.3 6.2-7.3 6.2c-2.2 2.2-5.2 4.1-8.3 5.1 1.4-2.8 3.8-5.4 6.4-7.3l7.3-6.2 7.3-6.2c2.2-2.1 5.3-4.2 8.3-5.1Zm19-16c.9-2.5 2.3-4.1 4.5-5.7l5.4-4.6 5.4-4.6c1.9-1.9 3.7-2.9 6.3-3.5-1 2.5-2.3 4.1-4.5 5.7l-5.4 4.6-5.4 4.6c-1.9 1.8-3.7 3-6.3 3.5Zm-55.8-14.8c-.3 3.1-1.8 6.5-3.5 9l-4.8 8.3-4.8 8.3c-1.4 2.8-3.5 5.7-6 7.6.4-3.1 1.7-6.4 3.5-9l4.8-8.3 4.8-8.3c1.3-2.8 3.5-5.8 6-7.6Zm12.3-21.5c0-2.7.8-4.7 2.3-6.9l3.5-6.1 3.5-6.1c1.2-2.4 2.5-4 4.8-5.4 0 2.7-.7 4.6-2.3 6.9l-3.5 6.1-3.5 6.1c-1.1 2.4-2.5 4-4.8 5.4Z"/>
    </g>
    <path class="cls-15" d="m460.9 185.2 2.8-.5-2.8-.5c-1.2-.2-2.1-1.1-2.2-2.2l-.5-2.8-.5 2.8c-.2 1.2-1.1 2.1-2.2 2.2l-2.8.5 2.8.5c1.2.2 2.1 1.1 2.2 2.2l.5 2.8.5-2.8c.2-1.2 1.1-2.1 2.2-2.2Z"/>
    <path class="cls-16" d="M506.5 148.4c-22.1 5.7-29.8 27.2-29.8 27.2s-5.8-3.5-15.4-1.9c-8.1 1.3-16.5 8.4-19.1 16.6-16.4 0-23.1 28.3 9.7 28.3s158.3.2 158.3.2-58.4-50.2-71.7-61.7c-1.7-1.5-14.5-13.1-32.1-8.6Z"/>
    <path style="fill:#f8dca4;stroke-width:0" d="M169.9 362.5h350.9V458H169.9z"/>
    <path style="fill:none;stroke-width:4.8px;stroke-linecap:round;stroke-linejoin:round;stroke:#fff" d="m275.2 446.7 18.1-31.1"/>
    <path class="cls-16" d="M97.3 194.2h125.3c25.7 0 32.6-7.8 32.6-20s-17-16.1-19.7-16.1c-1.8-5.5-10.4-14.7-20.7-15.1-10.4-.4-19 3.9-23.7 11.6-5.8-13.2-20.3-15.8-30.9-14.6l-62.8 54.1Zm95.3-20.6c-.3.5-.7 1-1 1.6-.2-.6-.5-1.1-.8-1.6h1.8Z"/>
    <path class="cls-4" d="M174.5 180.8h-71.6c-11.6 0-18.1-8.2-18.1-22.4s12.1-33.2 36.7-33.2 34.1 14.2 37.1 22c10.8-1.7 25.4.9 31.5 14.7 5.4-7.7 13.4-12.1 23.7-11.6 10.4.4 18.4 8.2 20.7 15.1 11.2 0 15.1 2.2 15.1 7.8s-3.5 7.8-19.8 7.8h-55.2Z"/>
    <path class="cls-10" d="M384 370.8h-63.4c-1 0-1.8-.8-1.8-1.8s.8-1.8 1.8-1.8H384c1 0 1.8.8 1.8 1.8s-.8 1.8-1.8 1.8Zm-40.2 9.2h-38.5c-.7 0-1.2-.6-1.2-1.2 0-.7.6-1.2 1.2-1.2h38.5c.7 0 1.2.6 1.2 1.2 0 .7-.6 1.2-1.2 1.2Zm-6.8 8.1h-18.9c-.7 0-1.2-.6-1.2-1.2 0-.7.6-1.2 1.2-1.2H337c.7 0 1.2.6 1.2 1.2 0 .7-.6 1.2-1.2 1.2Zm16.7 0h-7.4c-.7 0-1.2-.6-1.2-1.2 0-.7.6-1.2 1.2-1.2h7.4c.7 0 1.2.6 1.2 1.2 0 .7-.6 1.2-1.2 1.2Z"/>
    <circle class="cls-10" cx="349.4" cy="378.8" r="1.3"/>
    <path class="cls-10" d="M313.9 386.7c0 .6-.5 1-1 1s-1-.5-1-1 .5-1 1-1 1 .5 1 1Z"/>
    <path class="cls-6" d="M310.9 409.3C298.2 397 288 395 288 395s.8-10-6.9-17.4c-7.8-7.3-18.4-8.9-18.4-8.9s-2.5-21.6-21.2-36.3c-18.8-14.7-38.4-8.9-38.4-8.9s-22.9-35.5-52.7-37.8c-8.2-.6-15-.2-20.7.8-10.1-13.9-26.4-22.9-44.9-22.9-30.6 0-55.4 24.8-55.4 55.4s24.8 55.4 55.4 55.4 31.9-7.5 42.1-19.4l25.6 80 163.1 53.1s15.8-7.5 15.8-35-7.8-31.6-20.4-44Z"/>
    <path class="cls-2" d="M125.6 319.1s54.4-16.6 96.5 41.7c10-.4 39.4 6.6 45.1 31.6 5.8 25.1 8 42.2 8 42.2H135.3l-9.6-115.5Z"/>
    <path class="cls-5" d="M299.3 436.3c0-11.5-3.9-28.1-23.4-40.9-12.3-8-32.6-9.2-37.2-5.9-27.7-44.5-67.9-35.7-67.9-35.7l-13.1 73.3h96.8c-.2-.9 14.1 34.6 13.9 33.7 0 0 30.7 5.7 30.9-24.6Z"/>
    <path class="cls-6" d="M599.6 263.7c-18.8 0-35.4 9.4-45.5 23.7-6.3-1.5-14.4-2.4-24.4-1.6-29.8 2.3-52.6 37.8-52.6 37.8s-19.6-5.8-38.3 8.9c-18.8 14.7-21.2 36.3-21.2 36.3s-10.6 1.5-18.4 8.9-6.9 17.4-6.9 17.4-10.2 1.9-22.8 14.3c-12.6 12.3-17.6 33.8-17.6 49.2s.9 30.2.9 30.2l175-53.6 26.8-83.9c10 14.1 26.5 23.3 45.1 23.3 30.6 0 55.4-24.8 55.4-55.4s-24.8-55.4-55.4-55.4Z"/>
    <path class="cls-2" d="M573.1 322.3s-52.5-21.9-100.1 31.9c-9.9-1.4-36.6 3.9-48.1 27-11.5 23.2-12.1 41.2-12.1 41.2L552 436.3l21.1-114Z"/>
    <path class="cls-5" d="M368.8 434.1s3.1-28.7 36.5-41.5c12.3-4.7 28.6-3.2 34.1.8 33-53.1 80.9-42.6 80.9-42.6l15.6 87.4H420.5c.3-1-71.1 51.7-49.3 34.7l-2.5-38.8Z"/>
    <path d="M28.1 349.4s17.7-28 26.6-40.4c23.9-33.5 59.4-34 85.1 2.1 11.8 16.5 24.3 33.1 38.1 53.9 10.1 15.3 19.1-7.4 43.6 17.8 17.9 18.4 43.7 74.9 43.7 74.9l13.6-10.3v14.8l-230.1-7.6-20.6-105.1Z" style="stroke-width:3.3px;stroke-miterlimit:10;fill:#1a374a;fill-rule:evenodd;stroke:#fff"/>
    <path d="M519.1 352.6c7.9 2.9 16.3-11.7 22.3-22.2 18.2-31.9 63.6-37.1 86.2-4 5.9 8.6 18.4 30.1 26.8 45.3 3.6 6.5-41.8 83.8-41.8 83.8l-256.4 8s37.1-2.3 42.5-9.5c38.5-50.9 49.7-65.9 62.7-82.9 16.1-21.1 37.8-25.6 57.7-18.4Z" style="stroke-miterlimit:10;fill:#1a374a;fill-rule:evenodd;stroke:#fff;stroke-width:3.2px"/>
    <path class="cls-8" d="M292 424.1s-11.5 18.6-11.5 30.2h22.9c0-11.7-11.5-30.2-11.5-30.2Z"/>
    <path class="cls-12" d="M291.5 433.3h.9v21.1h-.9z"/>
    <path class="cls-12" d="m291.6 442-4.7-3.7.7-.3 4.7 3.8-.7.2zm.7 6.4-.7-.3 7.1-4.4.6.3-7 4.4z"/>
    <path class="cls-8" d="M250 391.2s15.6 38.5 15.6 62.8h-31.3c0-24.3 15.6-62.8 15.6-62.8Z"/>
    <path class="cls-12" d="M249.4 410.1h1.2V454h-1.2z"/>
    <path class="cls-12" d="m250.5 428.4 6.4-7.9-1-.5-6.4 7.8 1 .6zm-1 13.1 1-.6-9.6-9.2-.9.6 9.5 9.2z"/>
    <path class="cls-8" d="M275.6 413.9s-12.8 24.6-12.8 40.1h25.7c0-15.5-12.8-40.1-12.8-40.1Z"/>
    <path class="cls-12" d="M275.1 426h1v28h-1z"/>
    <path class="cls-12" d="m275.2 437.6-5.3-5 .8-.3 5.3 5-.8.3zm.8 8.4-.8-.4 7.8-5.8.8.4-7.8 5.8z"/>
    <path class="cls-8" d="M306.6 423.7s-13.4 18.6-13.4 30.2H320c0-11.7-13.4-30.2-13.4-30.2Z"/>
    <path class="cls-12" d="M306.1 432.8h1v21.1h-1z"/>
    <path class="cls-12" d="m306.2 441.6-5.5-3.7.9-.3 5.5 3.8-.9.2zm.8 6.4-.8-.3 8.2-4.4.8.3-8.2 4.4z"/>
    <path class="cls-8" d="M323.6 442.5s-4.9 7-4.9 11.4h9.9c0-4.4-4.9-11.4-4.9-11.4Z"/>
    <path class="cls-12" d="M323.4 446h.4v8h-.4z"/>
    <path class="cls-12" d="m323.4 449.3-2-1.4.3-.1 2 1.4-.3.1zm.3 2.4-.3-.1 3-1.7.3.1-3 1.7z"/>
    <path class="cls-8" d="M333.7 442.5s-7.6 7-7.6 11.4h15.2c0-4.4-7.6-11.4-7.6-11.4Z"/>
    <path class="cls-12" d="M333.4 446h.6v8h-.6z"/>
    <path class="cls-12" d="m333.4 449.3-3.1-1.4.5-.1 3.1 1.4-.5.1zm.5 2.4-.5-.1 4.7-1.7.4.1-4.6 1.7z"/>
    <path class="cls-8" d="M374.9 424.1s11.5 18.6 11.5 30.2h-22.9c0-11.7 11.5-30.2 11.5-30.2Z"/>
    <path class="cls-12" d="M374.4 433.3h.9v21.1h-.9z"/>
    <path class="cls-12" d="m375.3 442 4.7-3.7-.8-.3-4.7 3.8.8.2zm-.8 6.4.7-.3-7-4.4-.7.3 7 4.4z"/>
    <path class="cls-8" d="M416.8 391.2s-15.6 38.5-15.6 62.8h31.3c0-24.3-15.6-62.8-15.6-62.8Z"/>
    <path class="cls-12" d="M416.2 410.1h1.2V454h-1.2z"/>
    <path class="cls-12" d="m416.3 428.4-6.4-7.9 1-.5 6.5 7.8-1.1.6zm1 13.1-.9-.6 9.5-9.2 1 .6-9.6 9.2z"/>
    <path class="cls-8" d="M391.3 413.9s12.8 24.6 12.8 40.1h-25.7c0-15.5 12.8-40.1 12.8-40.1Z"/>
    <path class="cls-12" d="M390.8 426h1v28h-1z"/>
    <path class="cls-12" d="m391.7 437.6 5.3-5-.9-.3-5.2 5 .8.3zm-.8 8.4.8-.4-7.9-5.8-.8.4 7.9 5.8z"/>
    <path class="cls-8" d="M360.2 423.7s13.4 18.6 13.4 30.2h-26.8c0-11.7 13.4-30.2 13.4-30.2Z"/>
    <path class="cls-12" d="M359.7 432.8h1v21.1h-1z"/>
    <path class="cls-12" d="m360.7 441.6 5.4-3.7-.8-.3-5.5 3.8.9.2zm-.9 6.4.8-.3-8.2-4.4-.8.3 8.2 4.4z"/>
    <path class="cls-8" d="M343.3 442.5s4.9 7 4.9 11.4h-9.9c0-4.4 4.9-11.4 4.9-11.4Z"/>
    <path class="cls-12" d="M343.1 446h.4v8h-.4z"/>
    <path class="cls-12" d="m343.4 449.3 2.1-1.4-.3-.1-2.1 1.4.3.1zm-.3 2.4.3-.1-3-1.7-.3.1 3 1.7z"/>
    <path class="cls-8" d="M333.2 442.5s7.6 7 7.6 11.4h-15.2c0-4.4 7.6-11.4 7.6-11.4Z"/>
    <path class="cls-12" d="M332.9 446h.6v8h-.6z"/>
    <path class="cls-12" d="m333.4 449.3 3.2-1.4-.5-.1-3.2 1.4.5.1zm-.4 2.4.4-.1-4.6-1.7-.5.1 4.7 1.7z"/>
    <path class="cls-8" d="M38.4 453.9h617v90.7h-617z"/>
    <path d="m357 510.4 95.2 141.5h151.9c26.4 0 57.6-11.3 57.6-54V370c0-29.7-34.5-46.2-57.6-27.5l-247 167.9Z" style="opacity:.2;fill:#010101;stroke-width:0"/>
    <path class="cls-11" d="m397.1 507.8 56.4 163.1h151.9c26.4 0 57.6-11.3 57.6-54V366.7c0-29.7-34.5-46.2-57.6-27.5L397.1 507.8Zm-113.8 0-56.4 163.1H75c-26.4 0-57.6-11.3-57.6-54V366.7c0-29.7 34.5-46.2 57.6-27.5l208.3 168.6Z"/>
    <path class="cls-18" d="M227.8 670.2H32.4c-22.7 0-3.8-15.8-.3-18.2l232.2-159.2 18.5 15-54.9 162.4Zm245.3-196.8-65.4 52.8c-2.4 1.9-5.9 1.7-7.7-.7-1.9-2.3-1.4-5.8 1-7.7l65.4-52.8c2.4-1.9 5.9-1.7 7.7.7 1.9 2.3 1.4 5.8-1 7.7Zm25.6-20.7-4 3.2c-2.4 1.9-5.9 1.7-7.7-.7-1.9-2.3-1.4-5.8 1-7.7l4-3.2c2.4-1.9 5.9-1.7 7.7.7 1.9 2.3 1.4 5.8-1 7.7Zm16.3-13.1-.5.4c-2.4 1.9-5.8 1.6-7.7-.7-1.9-2.3-1.5-5.7.9-7.7l.5-.4c2.4-1.9 5.8-1.6 7.7.7 1.9 2.3 1.5 5.7-.9 7.7Z"/>
    <path class="cls-18" d="M452.1 670.2h195.4c22.7 0 3.8-15.8.3-18.2L415.6 492.8l-18.5 15L452 670.2Z"/>
    <path class="cls-4" d="M440.9 205c-8.2 0-8.1-11.1 5.2-11.1 2.6-8.2 11.2-15.5 19.4-15.5s15.1 5.2 15.1 5.2 6.9-30 29.8-31.5c16.9-1.1 28.5 12.5 28.5 12.5s8.2-6.9 21.6-6.9c10.4-10.4 20.3-17.1 41.4-14.7 21 2.4 34.5 26.3 34.5 42.7S618.3 205 614 205H441Z"/>
    <path class="cls-15" d="M411.9 129.6c2.7 0 2.6-3.6-1.7-3.6-.8-2.7-2.9-4.9-6.3-5-3.2-.1-4.9 1.7-4.9 1.7s-1.9-10.2-11-10.2-9.5 8-9.5 8-1.7-4.3-6.7-4.3c-9.5 0-9.3 13.5.2 13.5h39.9Z"/>
    <path d="M647.2 657.7c-13.7-9-292.8-187.5-292.8-187.5-4.3-2.8-9.2-4.1-14.1-4.2h-.4c-4.9 0-9.8 1.4-14.1 4.2 0 0-279.1 178.6-292.8 187.5-11.1 7.3-10 12.8-.2 12.8h614.4c9.9 0 10.9-5.5-.2-12.8Z" style="fill:#f5e6ca;stroke-width:0"/>
</svg>
